<svg width="55" height="55" viewBox="0 0 58 58" fill="none" xmlns="http://www.w3.org/2000/svg">
<path fill-rule="evenodd" clip-rule="evenodd" d="M35.8555 0.08523C34.926 0.221841 33.9905 0.531279 33.0287 1.02006C32.0485 1.51827 2.73663 30.5451 1.57015 32.1727C-0.588386 35.1845 -0.515952 39.4103 1.75399 42.8967C2.6978 44.3464 13.2688 54.9474 14.6846 55.864C15.7252 56.5376 16.8881 57.0449 18.1874 57.3919L19.1079 57.6377H37.972H56.8362L57.1558 57.401C58.3308 56.5304 58.2671 54.7273 57.0406 54.1454C56.6835 53.9759 55.3703 53.9594 42.2377 53.9595H27.8265L41.9175 39.8405C56.6062 25.1228 56.3883 25.3549 57.0422 23.736C58.2375 20.7766 57.5965 16.9043 55.4553 14.1498C54.2387 12.5847 43.4873 2.0905 42.5089 1.51291C40.4865 0.319337 37.9565 -0.223629 35.8555 0.08523ZM38.4324 3.87397C40.314 4.27279 40.4699 4.3994 46.6517 10.5459C53.6729 17.5271 53.8535 17.7774 53.8535 20.5179C53.8535 22.7465 54.8189 21.6118 42.0129 34.4362L30.9372 45.5276L21.5417 36.1332L12.1461 26.7387L23.2665 15.6309C30.8974 8.0085 34.5378 4.44779 34.868 4.28308C35.991 3.72302 37.1125 3.59437 38.4324 3.87397ZM35.9849 10.7293C35.0333 11.0142 34.5104 12.2534 34.9035 13.2929C35.0404 13.6547 43.5786 22.2692 44.1592 22.6311C45.7897 23.6476 47.726 21.7494 46.7454 20.0957C46.3163 19.3723 37.8802 11.0047 37.3611 10.7879C36.9019 10.596 36.4887 10.5783 35.9849 10.7293ZM26.1243 50.3422C22.6134 53.863 21.6232 54.3618 19.2516 53.8035C17.164 53.3121 16.6951 52.9307 10.3784 46.5844C4.45839 40.6367 4.09404 40.1575 3.77374 37.899C3.47459 35.79 3.86457 35.0632 6.98402 31.9152L9.48198 29.3942L18.878 38.7904L28.2741 48.1864L26.1243 50.3422Z" fill="#686868"/>
</svg>
