<svg width="500" height="500" viewBox="0 0 500 500" fill="none" xmlns="http://www.w3.org/2000/svg">
<g clip-path="url(#clip0_151_231)">
<circle cx="250" cy="250" r="250" fill="#8ACDE2"/>
<path fill-rule="evenodd" clip-rule="evenodd" d="M267.936 103.304C159.59 118.666 167.029 117.256 163.368 123.118L161.544 126.037L161.387 208.588L161.231 291.14L156.137 288.777C119.619 271.839 78 298.651 78 339.114C78 404.929 172.619 414.903 188.057 350.716C189.051 346.581 189.145 340.795 189.335 272.042L189.538 197.831L190.869 197.536C192.947 197.077 352.559 174.615 353.742 174.616C354.733 174.617 354.793 177.124 354.793 218.939C354.793 243.316 354.696 263.261 354.577 263.261C354.459 263.261 352.318 262.327 349.821 261.184C316.012 245.724 275.728 268.86 271.886 305.947C267.338 349.837 314.126 381.049 353.601 360.461C366.723 353.616 376.409 341.879 381.058 327.187L382.744 321.861L382.91 211.205C383.095 88.0853 383.41 97.6781 379.048 93.3611C373.656 88.0237 379.239 87.5241 267.936 103.304Z" fill="#BF5F76"/>
<path fill-rule="evenodd" clip-rule="evenodd" d="M278.641 109.067C173.315 124.155 180.547 122.771 176.987 128.528L175.215 131.394L175.062 212.475L174.91 293.556L169.958 291.235C134.459 274.599 94 300.933 94 340.675C94 405.317 185.981 415.114 200.988 352.07C201.954 348.009 202.046 342.326 202.23 274.798L202.429 201.909L203.722 201.62C205.742 201.169 360.904 179.108 362.054 179.108C363.018 179.109 363.076 181.571 363.076 222.641C363.076 246.584 362.981 266.174 362.866 266.174C362.751 266.174 360.67 265.256 358.242 264.134C325.375 248.949 286.215 271.673 282.48 308.099C278.059 351.207 323.542 381.863 361.917 361.641C374.673 354.919 384.089 343.391 388.608 328.96L390.247 323.73L390.409 215.045C390.589 94.1195 390.895 103.541 386.655 99.3012C381.412 94.0589 386.84 93.5682 278.641 109.067Z" fill="#FF7E9D"/>
<path d="M409 172.9L299.349 188.4L304.832 242.4C301.343 244.4 293.568 248.6 290.378 249.4C287.188 250.2 265.789 265.067 255.489 272.4L252 321.9L277.917 385.9L409 381.9V172.9Z" fill="#8ACDE2" stroke="#8ACDE2"/>
<path fill-rule="evenodd" clip-rule="evenodd" d="M326.565 123.573C324.544 126.117 322.945 129.688 322.593 132.445C322.397 133.973 318.793 252.211 318.225 275.737L318.124 279.903L321.531 278.171C336.256 270.682 352.544 269.227 370.332 273.812C371.149 274.023 371.897 274.031 371.995 273.83C372.16 273.491 368.863 140.075 368.466 131.051C367.631 112.049 339.68 107.062 326.565 123.573ZM313.164 301.35C304.046 312.671 302.091 323.686 306.227 340.446C310.16 356.384 308.752 365.299 299.894 380.563C296.133 387.043 296.045 386.767 302.159 387.625C319.402 390.042 345.962 379.174 364.557 362.093C392.1 336.79 397.108 309.021 377.015 293.014C357.896 277.783 329.118 281.54 313.164 301.35Z" fill="#BF5E76"/>
<path d="M199.673 196.207L389.892 169.793" stroke="#FF7E9D" stroke-width="20"/>
<path d="M365 146.5C366.6 142.5 369.333 120.167 370.5 109.5H347.5C346 109.5 333 112.5 329.5 113.5C326 114.5 321 121 319.5 124C318 127 308.5 151.5 307.5 155C306.5 158.5 316 172.5 319.5 173C323 173.5 353 176.5 356 175C359 173.5 363 151.5 365 146.5Z" fill="#FF7E9D" stroke="#FF7E9D" stroke-width="20"/>
<path fill-rule="evenodd" clip-rule="evenodd" d="M346.084 117.527C343.905 119.992 342.156 123.586 341.742 126.455C341.511 128.045 335.892 252.324 334.933 277.068L334.762 281.449L338.397 279.988C354.108 273.672 371.381 273.886 390.151 280.628C391.013 280.937 391.805 281.026 391.912 280.825C392.092 280.485 390.632 139.464 390.349 129.906C389.755 109.782 360.226 101.525 346.084 117.527ZM329.182 303.529C319.352 314.488 317.114 325.892 321.239 344.007C325.161 361.233 323.535 370.482 313.921 385.625C309.838 392.054 309.749 391.754 316.212 393.314C334.438 397.712 362.735 389.103 382.689 373.088C412.248 349.364 417.975 320.623 396.937 301.59C376.919 283.48 346.382 284.354 329.182 303.529Z" fill="#FF7E9D"/>
</g>
<defs>
<clipPath id="clip0_151_231">
<rect width="500" height="500" fill="white"/>
</clipPath>
</defs>
</svg>
